<?xml version="1.0" standalone="no"?>
<!DOCTYPE svg PUBLIC "-//W3C//DTD SVG 20010904//EN"
 "http://www.w3.org/TR/2001/REC-SVG-20010904/DTD/svg10.dtd">
<svg version="1.0" xmlns="http://www.w3.org/2000/svg"
 width="512.000000pt" height="512.000000pt" viewBox="0 0 512.000000 512.000000"
 preserveAspectRatio="xMidYMid meet">

<g transform="translate(0.000000,512.000000) scale(0.100000,-0.100000)"
fill="#ffffffff" stroke="none">
<path d="M2374 4895 c-257 -45 -478 -160 -665 -345 -144 -143 -254 -324 -309
-508 -18 -59 -25 -72 -39 -67 -40 16 -183 44 -251 50 -90 8 -251 -8 -352 -36
-40 -11 -118 -42 -173 -69 -513 -249 -727 -861 -481 -1373 99 -206 287 -397
473 -481 l41 -18 -5 -157 c-6 -173 7 -274 54 -411 166 -486 658 -799 1162
-741 261 31 495 145 675 329 l60 61 75 -75 c228 -230 568 -351 889 -315 157
17 271 52 409 126 372 198 600 599 580 1020 -3 66 -9 129 -12 141 -5 17 1 24
37 40 127 57 272 178 369 308 307 411 267 987 -94 1344 -99 98 -165 145 -282
202 -219 107 -449 134 -683 79 -86 -20 -102 -19 -102 7 0 26 -42 138 -82 219
-64 129 -125 213 -232 321 -175 176 -375 285 -616 339 -104 23 -343 28 -446
10z m576 -1421 c0 -56 -2 -60 -235 -444 -129 -213 -235 -390 -235 -394 0 -3
110 -6 245 -6 l245 0 0 -105 0 -105 -415 0 -415 0 0 63 1 62 254 395 254 395
-255 3 -254 2 0 95 0 95 405 0 405 0 0 -56z m-810 -562 l0 -58 -244 -395 -244
-394 244 -3 244 -2 0 -95 0 -95 -405 0 -405 0 0 54 c0 54 3 59 241 436 132
211 243 389 246 396 4 12 -36 14 -241 14 l-246 0 0 100 0 100 405 0 405 0 0
-58z m1640 -1 l0 -60 -245 -393 -245 -393 245 -3 245 -2 0 -95 0 -95 -405 0
-405 0 0 53 c0 52 5 61 245 445 135 216 245 394 245 397 0 3 -115 5 -255 5
l-255 0 0 100 0 100 415 0 415 0 0 -59z"/>
<path d="M313 1025 c-80 -22 -131 -52 -190 -111 -220 -220 -125 -592 175 -684
198 -61 403 33 495 228 29 61 32 75 32 167 0 92 -3 106 -32 167 -89 188 -288
284 -480 233z"/>
</g>
</svg>
